<?xml version="1.0" encoding="UTF-8"?>
<svg width="897px" height="898px" viewBox="0 0 897 898" version="1.1" xmlns="http://www.w3.org/2000/svg" xmlns:xlink="http://www.w3.org/1999/xlink">
    <!-- Generator: Sketch 41 (35326) - http://www.bohemiancoding.com/sketch -->
    <title>Shape</title>
    <desc>Created with Sketch.</desc>
    <defs></defs>
    <g id="Page-1" stroke="none" stroke-width="1" fill="none" fill-rule="evenodd">
        <path d="M319.928,897.608 C337.677333,897.608 352.866667,891.293333 365.496,878.664 C378.125333,866.034667 384.44,850.845333 384.44,833.096 L384.44,577.096 C384.44,559.346667 378.125333,544.157333 365.496,531.528 C352.866667,518.898667 337.677333,512.584 319.928,512.584 L63.928,512.584 C46.1786667,512.584 31.16,518.898667 18.872,531.528 C6.584,544.157333 0.44,559.346667 0.44,577.096 L0.44,833.096 C0.44,850.845333 6.584,866.034667 18.872,878.664 C31.16,891.293333 46.1786667,897.608 63.928,897.608 L319.928,897.608 Z M319.928,384.584 C337.677333,384.584 352.866667,378.44 365.496,366.152 C378.125333,353.864 384.44,338.845333 384.44,321.096 L384.44,65.096 C384.44,47.3466667 378.125333,32.1573333 365.496,19.528 C352.866667,6.89866667 337.677333,0.584 319.928,0.584 L63.928,0.584 C46.1786667,0.584 31.16,6.89866667 18.872,19.528 C6.584,32.1573333 0.44,47.3466667 0.44,65.096 L0.44,321.096 C0.44,338.845333 6.584,353.864 18.872,366.152 C31.16,378.44 46.1786667,384.584 63.928,384.584 L319.928,384.584 L319.928,384.584 Z M832.952,897.608 C850.701333,897.608 865.72,891.293333 878.008,878.664 C890.296,866.034667 896.44,850.845333 896.44,833.096 L896.44,577.096 C896.44,559.346667 890.296,544.157333 878.008,531.528 C865.72,518.898667 850.701333,512.584 832.952,512.584 L576.952,512.584 C559.202667,512.584 544.013333,518.898667 531.384,531.528 C518.754667,544.157333 512.44,559.346667 512.44,577.096 L512.44,833.096 C512.44,850.845333 518.754667,866.034667 531.384,878.664 C544.013333,891.293333 559.202667,897.608 576.952,897.608 L832.952,897.608 Z M832.952,384.584 C850.701333,384.584 865.72,378.44 878.008,366.152 C890.296,353.864 896.44,338.845333 896.44,321.096 L896.44,65.096 C896.44,47.3466667 890.296,32.1573333 878.008,19.528 C865.72,6.89866667 850.701333,0.584 832.952,0.584 L576.952,0.584 C559.202667,0.584 544.013333,6.89866667 531.384,19.528 C518.754667,32.1573333 512.44,47.3466667 512.44,65.096 L512.44,321.096 C512.44,338.845333 518.754667,353.864 531.384,366.152 C544.013333,378.44 559.202667,384.584 576.952,384.584 L832.952,384.584 L832.952,384.584 Z" id="Shape" fill="#FFFFFF" transform="translate(448.440000, 449.096000) scale(1, -1) translate(-448.440000, -449.096000) "></path>
    </g>
</svg>